<?xml version="1.0" encoding="UTF-8" standalone="no"?>
<svg
   xmlns:dc="http://purl.org/dc/elements/1.1/"
   xmlns:cc="http://creativecommons.org/ns#"
   xmlns:rdf="http://www.w3.org/1999/02/22-rdf-syntax-ns#"
   xmlns:svg="http://www.w3.org/2000/svg"
   xmlns="http://www.w3.org/2000/svg"
   xmlns:sodipodi="http://sodipodi.sourceforge.net/DTD/sodipodi-0.dtd"
   xmlns:inkscape="http://www.inkscape.org/namespaces/inkscape"
   inkscape:version="1.0 (4035a4f, 2020-05-01)"
   sodipodi:docname="mse.svg"
   viewBox="0 0 230.55117 34.519177"
   height="9.1331987mm"
   width="60.999996mm"
   xml:space="preserve"
   id="svg10"
   version="1.1"><metadata
     id="metadata16"><rdf:RDF><cc:Work
         rdf:about=""><dc:format>image/svg+xml</dc:format><dc:type
           rdf:resource="http://purl.org/dc/dcmitype/StillImage" /><dc:title></dc:title></cc:Work></rdf:RDF></metadata><defs
     id="defs14"><clipPath
       id="clipPath34"
       clipPathUnits="userSpaceOnUse"><path
         id="path32"
         d="m 42.52,375.01 h 161.575 v 14.551 H 42.52 Z" /></clipPath><clipPath
       id="clipPath162"
       clipPathUnits="userSpaceOnUse"><path
         id="path160"
         d="m 569.785,30.903 h 4.272 v 20.548 h -4.272 z" /></clipPath><clipPath
       id="clipPath174"
       clipPathUnits="userSpaceOnUse"><path
         id="path172"
         d="m 42.52,284.457 h 52.038 v 61.808 H 42.52 Z" /></clipPath><clipPath
       id="clipPath318"
       clipPathUnits="userSpaceOnUse"><path
         id="path316"
         d="m 42.999,269.161 h 91.851 v 5.867 H 42.999 Z" /></clipPath><clipPath
       id="clipPath330"
       clipPathUnits="userSpaceOnUse"><path
         id="path328"
         d="m 42.772,262.161 h 100.661 v 5.868 H 42.772 Z" /></clipPath><clipPath
       id="clipPath342"
       clipPathUnits="userSpaceOnUse"><path
         id="path340"
         d="m 42.844,255.161 h 34.927 v 5.796 H 42.844 Z" /></clipPath><clipPath
       id="clipPath354"
       clipPathUnits="userSpaceOnUse"><path
         id="path352"
         d="m 42.819,249.385 h 23.574 v 4.572 H 42.819 Z" /></clipPath><clipPath
       id="clipPath366"
       clipPathUnits="userSpaceOnUse"><path
         id="path364"
         d="m 42.58,241.617 h 58.196 v 5.376 H 42.58 Z" /></clipPath><clipPath
       id="clipPath378"
       clipPathUnits="userSpaceOnUse"><path
         id="path376"
         d="m 42.97,235.385 h 31.913 v 4.644 H 42.97 Z" /></clipPath><clipPath
       id="clipPath390"
       clipPathUnits="userSpaceOnUse"><path
         id="path388"
         d="m 42.562,228.385 h 32.436 v 4.644 H 42.562 Z" /></clipPath><clipPath
       id="clipPath404"
       clipPathUnits="userSpaceOnUse"><path
         id="path402"
         d="m 42.52,181.754 h 92.828 v 21.26 H 42.52 Z" /></clipPath><clipPath
       id="clipPath640"
       clipPathUnits="userSpaceOnUse"><path
         id="path638"
         d="m 42.981,166.914 h 111.262 v 5.377 H 42.981 Z" /></clipPath><clipPath
       id="clipPath652"
       clipPathUnits="userSpaceOnUse"><path
         id="path650"
         d="m 42.598,159.458 h 91.922 v 5.796 H 42.598 Z" /></clipPath><clipPath
       id="clipPath664"
       clipPathUnits="userSpaceOnUse"><path
         id="path662"
         d="m 42.711,152.458 h 32.668 v 5.796 H 42.711 Z" /></clipPath><clipPath
       id="clipPath676"
       clipPathUnits="userSpaceOnUse"><path
         id="path674"
         d="M 43.035,146.682 H 80.84 v 4.572 H 43.035 Z" /></clipPath><clipPath
       id="clipPath688"
       clipPathUnits="userSpaceOnUse"><path
         id="path686"
         d="m 42.58,138.914 h 58.295 v 5.376 H 42.58 Z" /></clipPath><clipPath
       id="clipPath700"
       clipPathUnits="userSpaceOnUse"><path
         id="path698"
         d="m 42.97,132.682 h 36.517 v 4.644 H 42.97 Z" /></clipPath><clipPath
       id="clipPath712"
       clipPathUnits="userSpaceOnUse"><path
         id="path710"
         d="m 42.562,125.682 h 36.821 v 4.644 H 42.562 Z" /></clipPath><clipPath
       id="clipPath742"
       clipPathUnits="userSpaceOnUse"><path
         id="path740"
         d="m 42.52,79.047 h 92.828 v 20.14 H 42.52 Z" /></clipPath><clipPath
       id="clipPath850"
       clipPathUnits="userSpaceOnUse"><path
         id="path848"
         d="m 42.981,64.207 h 88.778 v 5.377 H 42.981 Z" /></clipPath><clipPath
       id="clipPath862"
       clipPathUnits="userSpaceOnUse"><path
         id="path860"
         d="m 42.999,56.751 h 38.726 v 5.484 H 42.999 Z" /></clipPath><clipPath
       id="clipPath874"
       clipPathUnits="userSpaceOnUse"><path
         id="path872"
         d="m 42.814,50.975 h 39.838 v 4.572 H 42.814 Z" /></clipPath><clipPath
       id="clipPath886"
       clipPathUnits="userSpaceOnUse"><path
         id="path884"
         d="m 42.58,43.207 h 58.138 v 5.376 H 42.58 Z" /></clipPath><clipPath
       id="clipPath898"
       clipPathUnits="userSpaceOnUse"><path
         id="path896"
         d="M 42.97,36.976 H 74.988 V 41.62 H 42.97 Z" /></clipPath><clipPath
       id="clipPath910"
       clipPathUnits="userSpaceOnUse"><path
         id="path908"
         d="m 42.562,29.975 h 32.322 v 4.644 H 42.562 Z" /></clipPath><clipPath
       id="clipPath926"
       clipPathUnits="userSpaceOnUse"><path
         id="path924"
         d="m 216.85,146.255 h 80.788 v 56.758 H 216.85 Z" /></clipPath><clipPath
       id="clipPath1010"
       clipPathUnits="userSpaceOnUse"><path
         id="path1008"
         d="m 217.378,132.025 h 48.861 v 4.572 h -48.861 z" /></clipPath><clipPath
       id="clipPath1022"
       clipPathUnits="userSpaceOnUse"><path
         id="path1020"
         d="m 216.911,125.025 h 56.785 v 4.572 h -56.785 z" /></clipPath><clipPath
       id="clipPath1034"
       clipPathUnits="userSpaceOnUse"><path
         id="path1032"
         d="m 216.911,118.025 h 52.96 v 4.572 h -52.96 z" /></clipPath><clipPath
       id="clipPath1046"
       clipPathUnits="userSpaceOnUse"><path
         id="path1044"
         d="m 217.181,111.026 h 29.882 v 4.302 h -29.882 z" /></clipPath><clipPath
       id="clipPath1058"
       clipPathUnits="userSpaceOnUse"><path
         id="path1056"
         d="m 216.911,103.258 h 58.467 v 5.376 h -58.467 z" /></clipPath><clipPath
       id="clipPath1070"
       clipPathUnits="userSpaceOnUse"><path
         id="path1068"
         d="m 217.3,97.025 h 33.594 v 4.572 H 217.3 Z" /></clipPath><clipPath
       id="clipPath1082"
       clipPathUnits="userSpaceOnUse"><path
         id="path1080"
         d="m 216.892,90.025 h 46.94 v 4.572 h -46.94 z" /></clipPath><clipPath
       id="clipPath1098"
       clipPathUnits="userSpaceOnUse"><path
         id="path1096"
         d="m 391.181,145.701 h 41.892 v 57.313 h -41.892 z" /></clipPath><clipPath
       id="clipPath1246"
       clipPathUnits="userSpaceOnUse"><path
         id="path1244"
         d="m 391.307,130.405 h 118.75 v 5.868 h -118.75 z" /></clipPath><clipPath
       id="clipPath1258"
       clipPathUnits="userSpaceOnUse"><path
         id="path1256"
         d="m 391.529,123.405 h 56.828 v 5.867 h -56.828 z" /></clipPath><clipPath
       id="clipPath1270"
       clipPathUnits="userSpaceOnUse"><path
         id="path1268"
         d="m 391.241,117.629 h 50.738 v 4.572 h -50.738 z" /></clipPath><clipPath
       id="clipPath1282"
       clipPathUnits="userSpaceOnUse"><path
         id="path1280"
         d="m 391.457,110.629 h 44.32 v 4.572 h -44.32 z" /></clipPath><clipPath
       id="clipPath1294"
       clipPathUnits="userSpaceOnUse"><path
         id="path1292"
         d="m 391.241,102.861 h 58.416 v 5.376 h -58.416 z" /></clipPath><clipPath
       id="clipPath1306"
       clipPathUnits="userSpaceOnUse"><path
         id="path1304"
         d="m 391.631,95.404 h 69.768 v 5.796 h -69.768 z" /></clipPath><clipPath
       id="clipPath1318"
       clipPathUnits="userSpaceOnUse"><path
         id="path1316"
         d="m 391.223,88.405 h 70.436 v 5.796 h -70.436 z" /></clipPath><clipPath
       id="clipPath1330"
       clipPathUnits="userSpaceOnUse"><path
         id="path1328"
         d="m 391.181,316.697 h 80.787 v 29.579 h -80.787 z" /></clipPath><clipPath
       id="clipPath1564"
       clipPathUnits="userSpaceOnUse"><path
         id="path1562"
         d="m 391.667,301.401 h 102.327 v 5.868 H 391.667 Z" /></clipPath><clipPath
       id="clipPath1576"
       clipPathUnits="userSpaceOnUse"><path
         id="path1574"
         d="m 391.421,294.857 h 83.36 v 5.412 h -83.36 z" /></clipPath><clipPath
       id="clipPath1588"
       clipPathUnits="userSpaceOnUse"><path
         id="path1586"
         d="m 391.661,287.401 h 102.822 v 5.867 H 391.661 Z" /></clipPath><clipPath
       id="clipPath1600"
       clipPathUnits="userSpaceOnUse"><path
         id="path1598"
         d="m 391.217,281.625 h 44.22 v 4.572 h -44.22 z" /></clipPath><clipPath
       id="clipPath1612"
       clipPathUnits="userSpaceOnUse"><path
         id="path1610"
         d="m 391.511,273.857 h 43.135 v 5.376 h -43.135 z" /></clipPath><clipPath
       id="clipPath1624"
       clipPathUnits="userSpaceOnUse"><path
         id="path1622"
         d="m 391.241,266.857 h 58.79 v 5.376 h -58.79 z" /></clipPath><clipPath
       id="clipPath1636"
       clipPathUnits="userSpaceOnUse"><path
         id="path1634"
         d="m 391.631,259.437 h 36.097 v 5.76 h -36.097 z" /></clipPath><clipPath
       id="clipPath1648"
       clipPathUnits="userSpaceOnUse"><path
         id="path1646"
         d="m 391.223,252.401 h 58.062 v 5.796 h -58.062 z" /></clipPath><clipPath
       id="clipPath1660"
       clipPathUnits="userSpaceOnUse"><path
         id="path1658"
         d="m 42.934,355.833 h 132.68 v 5.904 H 42.934 Z" /></clipPath><clipPath
       id="clipPath1672"
       clipPathUnits="userSpaceOnUse"><path
         id="path1670"
         d="m 391.181,30.165 h 126.85 v 14.693 h -126.85 z" /></clipPath><clipPath
       id="clipPath1740"
       clipPathUnits="userSpaceOnUse"><path
         id="path1738"
         d="m 391.259,50.705 h 136.273 v 5.832 H 391.259 Z" /></clipPath><clipPath
       id="clipPath1756"
       clipPathUnits="userSpaceOnUse"><path
         id="path1754"
         d="m 216.85,302.022 h 83.486 v 44.243 H 216.85 Z" /></clipPath><clipPath
       id="clipPath2256"
       clipPathUnits="userSpaceOnUse"><path
         id="path2254"
         d="m 217.379,286.762 h 142.524 v 6.48 H 217.379 Z" /></clipPath><clipPath
       id="clipPath2268"
       clipPathUnits="userSpaceOnUse"><path
         id="path2266"
         d="m 217.33,279.726 h 91.431 v 5.796 H 217.33 Z" /></clipPath><clipPath
       id="clipPath2280"
       clipPathUnits="userSpaceOnUse"><path
         id="path2278"
         d="m 217.379,273.95 h 39.235 v 4.333 h -39.235 z" /></clipPath><clipPath
       id="clipPath2292"
       clipPathUnits="userSpaceOnUse"><path
         id="path2290"
         d="m 216.928,266.95 h 46.268 v 4.572 h -46.268 z" /></clipPath><clipPath
       id="clipPath2304"
       clipPathUnits="userSpaceOnUse"><path
         id="path2302"
         d="m 217.193,259.951 h 49.179 v 4.332 h -49.179 z" /></clipPath><clipPath
       id="clipPath2316"
       clipPathUnits="userSpaceOnUse"><path
         id="path2314"
         d="m 216.911,252.183 h 58.878 v 5.376 h -58.878 z" /></clipPath><clipPath
       id="clipPath2328"
       clipPathUnits="userSpaceOnUse"><path
         id="path2326"
         d="m 217.3,245.95 h 47.329 v 4.572 H 217.3 Z" /></clipPath><clipPath
       id="clipPath2340"
       clipPathUnits="userSpaceOnUse"><path
         id="path2338"
         d="m 216.892,238.95 h 40.541 v 4.572 h -40.541 z" /></clipPath></defs><sodipodi:namedview
     inkscape:current-layer="g18"
     inkscape:window-maximized="0"
     inkscape:window-y="23"
     inkscape:window-x="0"
     inkscape:cy="-2.6454545"
     inkscape:cx="118.43967"
     inkscape:zoom="4.6718147"
     fit-margin-bottom="2"
     fit-margin-right="2"
     fit-margin-left="2"
     fit-margin-top="2"
     units="mm"
     showgrid="false"
     id="namedview12"
     inkscape:window-height="950"
     inkscape:window-width="1365"
     inkscape:pageshadow="2"
     inkscape:pageopacity="0"
     guidetolerance="10"
     gridtolerance="10"
     objecttolerance="10"
     borderopacity="1"
     bordercolor="#666666"
     pagecolor="#ffffff" /><g
     transform="matrix(1.3333333,0,0,-1.3333333,-49.134277,526.97371)"
     inkscape:label="Brochure MSE-EN"
     inkscape:groupmode="layer"
     id="g18"><g
       transform="translate(147.0177,389.5101)"
       id="g20"><path
         id="path22"
         style="fill:#646262;fill-opacity:1;fill-rule:nonzero;stroke:none"
         d="M 0,0 -1.319,-4.095 H -1.336 L -2.625,0 h -1.003 v -5.149 h 0.62 v 4.44 h 0.014 l 1.402,-4.44 h 0.471 l 1.46,4.44 h 0.015 v -4.44 H 0.973 V 0 Z" /></g><g
       transform="translate(150.4854,389.5101)"
       id="g24"><path
         id="path26"
         style="fill:#646262;fill-opacity:1;fill-rule:nonzero;stroke:none"
         d="m 0,0 -1.727,-5.149 h 0.651 l 0.412,1.342 H 1.298 L 1.712,-5.149 H 2.39 L 0.708,0 Z m 0.324,-0.68 h 0.015 l 0.789,-2.565 h -1.617 z" /></g><g
       id="g28"><g
         clip-path="url(#clipPath34)"
         id="g30"><g
           transform="translate(154.8448,389.5611)"
           id="g36"><path
             id="path38"
             style="fill:#646262;fill-opacity:1;fill-rule:nonzero;stroke:none"
             d="m 0,0 v 0 c -0.782,0 -1.431,-0.442 -1.431,-1.291 0,-0.664 0.206,-0.981 1.137,-1.542 0.692,-0.42 0.796,-0.648 0.796,-1.046 0,-0.422 -0.332,-0.813 -0.915,-0.813 -0.303,0 -0.686,0.155 -0.981,0.332 v -0.671 c 0.273,-0.132 0.664,-0.221 1.078,-0.221 0.987,0 1.496,0.641 1.496,1.461 0,0.59 -0.264,1.04 -1.062,1.497 -0.737,0.428 -0.871,0.634 -0.871,0.966 0,0.436 0.319,0.768 0.805,0.768 0.317,0 0.635,-0.089 0.877,-0.236 V -0.17 C 0.701,-0.074 0.339,0 0,0" /></g><g
           transform="translate(159.6476,389.5098)"
           id="g40"><path
             id="path42"
             style="fill:#646262;fill-opacity:1;fill-rule:nonzero;stroke:none"
             d="m 0,0 h -3.009 v -0.56 h 1.179 v -4.589 h 0.65 V -0.56 H 0 Z" /></g><g
           transform="translate(162.8934,389.5098)"
           id="g44"><path
             id="path46"
             style="fill:#646262;fill-opacity:1;fill-rule:nonzero;stroke:none"
             d="m 0,0 h -2.398 v -5.149 h 2.493 v 0.56 h -1.843 v 1.83 h 1.666 v 0.56 H -1.748 V -0.56 H 0 Z" /></g><g
           transform="translate(165.3797,389.5098)"
           id="g48"><path
             id="path50"
             style="fill:#646262;fill-opacity:1;fill-rule:nonzero;stroke:none"
             d="m 0,0 h -1.322 v -5.149 h 0.651 v 2.331 h 0.294 c 0.488,0 0.673,-0.163 0.819,-0.59 L 1.033,-5.149 H 1.732 L 1.011,-3.083 C 0.907,-2.789 0.76,-2.641 0.45,-2.582 v 0.015 c 0.76,0.162 1.018,0.685 1.018,1.231 0,0.377 -0.118,0.731 -0.385,0.983 C 0.848,-0.133 0.547,0 0,0 m -0.671,-2.287 v 1.756 h 0.517 c 0.568,0 0.943,-0.273 0.943,-0.849 0,-0.449 -0.265,-0.907 -0.96,-0.907 h -0.5" /></g><g
           transform="translate(171.6724,389.5611)"
           id="g52"><path
             id="path54"
             style="fill:#646262;fill-opacity:1;fill-rule:nonzero;stroke:none"
             d="m 0,0 v 0 c -1.217,0 -1.933,-0.9 -1.933,-2.678 0,-1.593 0.73,-2.574 1.874,-2.574 1.216,0 1.931,0.899 1.931,2.678 C 1.872,-0.981 1.143,0 0,0 m -0.059,-4.721 c -0.872,0 -1.196,1.003 -1.196,2.043 0,1.586 0.577,2.146 1.255,2.146 0.87,0 1.194,-1.002 1.194,-2.042 0,-1.586 -0.575,-2.147 -1.253,-2.147" /></g><g
           transform="translate(176.9096,389.5098)"
           id="g56"><path
             id="path58"
             style="fill:#646262;fill-opacity:1;fill-rule:nonzero;stroke:none"
             d="m 0,0 h -2.301 v -5.149 h 0.649 v 2.39 h 1.571 v 0.56 H -1.652 V -0.56 H 0 Z" /></g><g
           transform="translate(181.0114,389.5611)"
           id="g60"><path
             id="path62"
             style="fill:#646262;fill-opacity:1;fill-rule:nonzero;stroke:none"
             d="m 0,0 v 0 c -0.782,0 -1.432,-0.442 -1.432,-1.291 0,-0.664 0.207,-0.981 1.136,-1.542 0.696,-0.42 0.797,-0.648 0.797,-1.046 0,-0.422 -0.333,-0.813 -0.915,-0.813 -0.3,0 -0.686,0.155 -0.981,0.332 v -0.671 c 0.274,-0.132 0.664,-0.221 1.077,-0.221 0.99,0 1.498,0.641 1.498,1.461 0,0.59 -0.266,1.04 -1.062,1.497 -0.737,0.428 -0.871,0.634 -0.871,0.966 0,0.436 0.319,0.768 0.805,0.768 0.317,0 0.634,-0.089 0.877,-0.236 V -0.17 C 0.701,-0.074 0.341,0 0,0" /></g><g
           transform="translate(185.3044,389.5611)"
           id="g64"><path
             id="path66"
             style="fill:#646262;fill-opacity:1;fill-rule:nonzero;stroke:none"
             d="m 0,0 v 0 c -1.343,0 -2.279,-1.01 -2.279,-2.618 0,-1.395 0.687,-2.634 2.315,-2.634 0.303,0 0.628,0.06 0.938,0.156 v 0.647 c -0.266,-0.154 -0.59,-0.243 -0.922,-0.243 -1.121,0 -1.653,0.878 -1.653,2.206 0,1.254 0.767,1.926 1.608,1.926 0.362,0 0.687,-0.081 0.967,-0.259 v 0.635 C 0.737,-0.066 0.369,0 0,0" /></g><path
           id="path68"
           style="fill:#646262;fill-opacity:1;fill-rule:nonzero;stroke:none"
           d="m 187.998,389.51 h -0.649 v -5.149 h 0.649 z" /><g
           transform="translate(191.6784,389.5098)"
           id="g70"><path
             id="path72"
             style="fill:#646262;fill-opacity:1;fill-rule:nonzero;stroke:none"
             d="m 0,0 h -2.398 v -5.149 h 2.493 v 0.56 h -1.843 v 1.83 h 1.667 v 0.56 H -1.748 V -0.56 H 0 Z" /></g><g
           transform="translate(196.216,389.5098)"
           id="g74"><path
             id="path76"
             style="fill:#646262;fill-opacity:1;fill-rule:nonzero;stroke:none"
             d="M 0,0 H -0.62 V -4.249 H -0.635 L -2.576,0 h -0.803 v -5.149 h 0.619 v 4.219 h 0.016 l 1.94,-4.219 H 0 Z" /></g><g
           transform="translate(199.557,389.5611)"
           id="g78"><path
             id="path80"
             style="fill:#646262;fill-opacity:1;fill-rule:nonzero;stroke:none"
             d="m 0,0 v 0 c -1.343,0 -2.28,-1.01 -2.28,-2.618 0,-1.395 0.687,-2.634 2.318,-2.634 0.301,0 0.626,0.06 0.936,0.156 v 0.647 c -0.266,-0.154 -0.59,-0.243 -0.922,-0.243 -1.121,0 -1.654,0.878 -1.654,2.206 0,1.254 0.768,1.926 1.609,1.926 0.362,0 0.687,-0.081 0.967,-0.259 v 0.635 C 0.737,-0.066 0.369,0 0,0" /></g><g
           transform="translate(203.9978,389.5098)"
           id="g82"><path
             id="path84"
             style="fill:#646262;fill-opacity:1;fill-rule:nonzero;stroke:none"
             d="m 0,0 h -2.396 v -5.149 h 2.493 v 0.56 h -1.844 v 1.83 h 1.667 v 0.56 H -1.747 V -0.56 H 0 Z" /></g><path
           id="path86"
           style="fill:#646262;fill-opacity:1;fill-rule:nonzero;stroke:none"
           d="m 144.039,380.211 h -0.649 v -5.147 h 0.649 z" /><g
           transform="translate(148.7006,380.2112)"
           id="g88"><path
             id="path90"
             style="fill:#646262;fill-opacity:1;fill-rule:nonzero;stroke:none"
             d="M 0,0 H -0.621 V -4.249 H -0.635 L -2.576,0 h -0.803 v -5.149 h 0.619 v 4.22 h 0.014 l 1.941,-4.22 H 0 Z" /></g><g
           transform="translate(154.2996,380.2112)"
           id="g92"><path
             id="path94"
             style="fill:#646262;fill-opacity:1;fill-rule:nonzero;stroke:none"
             d="m 0,0 h -2.399 v -5.149 h 2.494 v 0.56 h -1.844 v 1.831 h 1.666 v 0.561 H -1.749 V -0.56 H 0 Z" /></g><g
           transform="translate(158.9163,380.2112)"
           id="g96"><path
             id="path98"
             style="fill:#646262;fill-opacity:1;fill-rule:nonzero;stroke:none"
             d="M 0,0 H -0.619 V -4.249 H -0.634 L -2.574,0 h -0.805 v -5.149 h 0.62 v 4.22 h 0.016 l 1.939,-4.22 H 0 Z" /></g><g
           transform="translate(162.3326,380.2632)"
           id="g100"><path
             id="path102"
             style="fill:#646262;fill-opacity:1;fill-rule:nonzero;stroke:none"
             d="m 0,0 c -1.342,0 -2.279,-1.01 -2.279,-2.619 0,-1.393 0.686,-2.634 2.316,-2.634 0.456,0 0.974,0.156 1.276,0.267 v 2.619 h -1.482 v -0.562 h 0.863 v -1.623 c -0.17,-0.089 -0.436,-0.14 -0.642,-0.14 -1.123,0 -1.653,0.879 -1.653,2.206 0,1.254 0.767,1.925 1.608,1.925 0.376,0 0.812,-0.117 1.203,-0.316 v 0.648 C 0.857,-0.059 0.444,0 0,0" /></g><path
           id="path104"
           style="fill:#646262;fill-opacity:1;fill-rule:nonzero;stroke:none"
           d="m 165.652,380.211 h -0.649 v -5.147 h 0.649 z" /><g
           transform="translate(170.3885,380.2112)"
           id="g106"><path
             id="path108"
             style="fill:#646262;fill-opacity:1;fill-rule:nonzero;stroke:none"
             d="M 0,0 H -0.619 V -4.249 H -0.635 L -2.575,0 h -0.804 v -5.149 h 0.621 v 4.22 h 0.014 l 1.94,-4.22 H 0 Z" /></g><g
           transform="translate(174.1366,380.2112)"
           id="g110"><path
             id="path112"
             style="fill:#646262;fill-opacity:1;fill-rule:nonzero;stroke:none"
             d="m 0,0 h -2.398 v -5.149 h 2.493 v 0.56 h -1.843 v 1.831 h 1.666 v 0.561 H -1.748 V -0.56 H 0 Z" /></g><g
           transform="translate(177.7737,380.2112)"
           id="g114"><path
             id="path116"
             style="fill:#646262;fill-opacity:1;fill-rule:nonzero;stroke:none"
             d="m 0,0 h -2.398 v -5.149 h 2.493 v 0.56 h -1.843 v 1.831 h 1.666 v 0.561 H -1.748 V -0.56 H 0 Z" /></g><g
           transform="translate(180.3244,380.2112)"
           id="g118"><path
             id="path120"
             style="fill:#646262;fill-opacity:1;fill-rule:nonzero;stroke:none"
             d="m 0,0 h -1.319 v -5.149 h 0.648 v 2.331 h 0.296 c 0.486,0 0.671,-0.161 0.818,-0.59 l 0.59,-1.741 H 1.734 L 1.011,-3.083 C 0.909,-2.787 0.76,-2.64 0.451,-2.582 v 0.015 c 0.76,0.162 1.017,0.686 1.017,1.233 0,0.376 -0.118,0.73 -0.381,0.981 C 0.849,-0.133 0.547,0 0,0 m -0.671,-2.287 v 1.756 h 0.517 c 0.568,0 0.944,-0.273 0.944,-0.848 0,-0.449 -0.265,-0.908 -0.958,-0.908 h -0.503" /></g><path
           id="path122"
           style="fill:#646262;fill-opacity:1;fill-rule:nonzero;stroke:none"
           d="m 183.703,380.211 h -0.649 v -5.147 h 0.649 z" /><g
           transform="translate(188.4408,380.2112)"
           id="g124"><path
             id="path126"
             style="fill:#646262;fill-opacity:1;fill-rule:nonzero;stroke:none"
             d="M 0,0 H -0.62 V -4.249 H -0.635 L -2.575,0 h -0.804 v -5.149 h 0.619 v 4.22 h 0.015 l 1.941,-4.22 H 0 Z" /></g><g
           transform="translate(191.8631,380.2632)"
           id="g128"><path
             id="path130"
             style="fill:#646262;fill-opacity:1;fill-rule:nonzero;stroke:none"
             d="m 0,0 c -1.341,0 -2.28,-1.01 -2.28,-2.619 0,-1.393 0.687,-2.634 2.318,-2.634 0.455,0 0.973,0.156 1.275,0.267 v 2.619 H -0.17 v -0.562 h 0.864 v -1.623 c -0.17,-0.089 -0.435,-0.14 -0.642,-0.14 -1.121,0 -1.653,0.879 -1.653,2.206 0,1.254 0.767,1.925 1.608,1.925 0.377,0 0.813,-0.117 1.204,-0.316 v 0.648 C 0.855,-0.059 0.443,0 0,0" /></g><g
           transform="translate(136.0909,389.5156)"
           id="g132"><path
             id="path134"
             style="fill:#646262;fill-opacity:1;fill-rule:nonzero;stroke:none"
             d="M 0,0 V -14.452 Z" /></g><g
           transform="translate(136.2755,389.5156)"
           id="g136"><path
             id="path138"
             style="fill:#646262;fill-opacity:1;fill-rule:nonzero;stroke:none"
             d="M 0,0 V -14.452 H -0.369 V 0" /></g><g
           transform="translate(65.9463,389.5134)"
           id="g140"><path
             id="path142"
             style="fill:#646262;fill-opacity:1;fill-rule:nonzero;stroke:none"
             d="M 0,0 H -5.311 L -11.614,-9.976 -18.315,0 h -5.112 v -14.443 h 3.775 l -0.002,10.621 6.75,-10.621 h 2.481 l 6.701,10.621 V -14.443 H 0 v 3.599 z" /></g><g
           transform="translate(92.0287,389.5134)"
           id="g144"><path
             id="path146"
             style="fill:#646262;fill-opacity:1;fill-rule:nonzero;stroke:none"
             d="m 0,0 h -18.737 c -1.307,0 -2.415,-0.351 -3.325,-1.054 -0.91,-0.703 -1.365,-1.551 -1.365,-2.545 v -0.966 -0.994 c 0.033,-1.126 0.463,-1.969 1.29,-2.531 0.827,-0.563 1.953,-0.862 3.376,-0.895 h 14.89 v -1.636 h -19.556 v -3.822 h 18.712 c 1.356,0 2.481,0.318 3.374,0.956 0.894,0.637 1.341,1.592 1.341,2.866 v 1.636 c 0,1.26 -0.394,2.144 -1.179,2.656 -0.787,0.514 -1.965,0.77 -3.536,0.77 h -14.989 v 1.737 L 0,-3.822 V 0" /></g><g
           transform="translate(118.1094,384.0543)"
           id="g148"><path
             id="path150"
             style="fill:#646262;fill-opacity:1;fill-rule:nonzero;stroke:none"
             d="m 0,0 h -23.425 v -5.385 c 0,-0.993 0.453,-1.841 1.363,-2.544 0.911,-0.704 2.019,-1.054 3.327,-1.054 H -4.689 0 v 3.921 h -3.274 -3.525 -9.777 -3.128 v 1.636 L 0,-3.426 V 0" /></g><g
           transform="translate(94.6944,385.7011)"
           id="g152"><path
             id="path154"
             style="fill:#e5323d;fill-opacity:1;fill-rule:nonzero;stroke:none"
             d="M 0,0 V 0.224 C 0,1.215 0.454,2.063 1.364,2.766 2.274,3.47 3.383,3.822 4.69,3.822 H 23.426 V 0 H 6.875 5.559 Z" /></g></g></g></g></svg>
